<svg class="max-sm:w-full max-sm:max-w-[180px] " width="230" height="34" viewBox="0 0 230 34" fill="none" xmlns="http://www.w3.org/2000/svg"><g id="Group"><g id="Group_2" class="transition-colors" color="rgb(0, 144, 136)"><path id="Vector" d="M162.476 11.5017H164.075L168.458 22.4573H166.326L165.26 19.7332H161.351L160.345 22.4573H158.272L162.476 11.5017ZM164.608 18.1343L163.839 15.9431C163.542 15.1141 163.365 14.6403 163.306 14.2258H163.246C163.128 14.5811 163.009 15.1141 162.654 15.9431L161.884 18.0751H164.608V18.1343Z" fill="currentColor"/><path id="Vector_2" d="M170.767 13.219H167.569V11.5016H176.215L175.682 13.219H172.781V22.4573H170.767V13.219Z" fill="currentColor"/><path id="Vector_3" d="M177.518 11.5609H179.532V20.7991H183.44V22.4573H177.577V11.5609H177.518Z" fill="currentColor"/><path id="Vector_4" d="M188.415 11.5016H190.014L194.396 22.4573H192.264L191.198 19.7332H187.29L186.283 22.4573H184.21L188.415 11.5016ZM190.547 18.1342L189.777 15.9431C189.481 15.114 189.303 14.6403 189.244 14.2257H189.185C189.066 14.5811 188.948 15.114 188.592 15.9431L187.823 18.075H190.547V18.1342Z" fill="currentColor"/><path id="Vector_5" d="M203.693 22.4573L198.956 16.2392C198.482 15.647 198.067 15.0548 197.712 14.5811H197.653C197.712 14.9956 197.712 15.647 197.712 16.2984V22.4573H195.699V11.5609H197.653L202.213 17.542C202.687 18.1934 203.101 18.7264 203.397 19.2594H203.456C203.456 18.6672 203.397 18.0158 203.397 17.4236V11.5609H205.411V22.4573H203.693Z" fill="currentColor"/><path id="Vector_6" d="M210.03 13.219H206.832V11.5016H215.478L214.945 13.219H212.043V22.4573H210.03V13.219Z" fill="currentColor"/><path id="Vector_7" d="M216.781 11.5609H218.794V22.4573H216.781V11.5609Z" fill="currentColor"/><path id="Vector_8" d="M229.75 21.8059C228.566 22.4573 227.381 22.6942 226.256 22.6942C222.703 22.6942 220.749 20.3846 220.749 17.1867C220.749 14.0481 222.999 11.5016 226.493 11.5016C227.677 11.5016 228.684 11.7385 229.335 12.0346V13.8704C228.506 13.3967 227.559 13.1598 226.493 13.1598C224.065 13.1598 222.821 14.9956 222.821 17.1275C222.821 19.4371 224.243 21.036 226.434 21.036C227.5 21.036 228.329 20.7399 229.099 20.2662L229.75 21.8059Z" fill="currentColor"/><path id="Vector_9" d="M16.856 4.0401H16.7375C16.2044 4.21781 15.6713 3.92163 15.0789 4.51399C15.1974 4.6917 15.3751 4.75093 15.5528 4.81017C15.9675 4.57322 16.7968 4.6917 16.856 4.0401Z" fill="currentColor"/><path id="Vector_10" d="M14.7236 17.8384C15.1975 18.1938 15.8491 18.3122 16.3822 18.3122C16.4415 18.3122 16.0861 17.7199 14.6052 17.4829L14.7236 17.8384Z" fill="currentColor"/><path id="Vector_11" d="M20.8232 21.6283L19.1058 21.0953L18.6913 20.3255L18.5136 20.207L17.803 20.0294C17.3293 19.5556 16.9147 19.2003 16.441 19.1411L16.0264 19.0819L15.0789 19.4372C14.6644 19.4964 14.6052 18.9634 14.6052 18.9634C14.6052 18.845 14.6052 18.7858 14.5459 18.6081C14.4275 18.4897 14.2498 18.4304 13.9537 18.4897C14.0722 18.1936 14.1906 17.8975 14.013 17.5421C13.6576 17.5421 13.5392 17.9567 13.3023 18.1343C12.7693 17.9567 12.414 18.0159 12.5917 17.8382C12.7693 17.7198 12.7101 16.5354 12.8878 16.6539C13.3615 16.7131 14.2498 15.8248 14.7236 16.6539C14.7828 16.8907 14.9013 17.1868 15.2566 17.0684C15.2566 16.7723 15.4342 16.3578 15.0789 16.1801C14.7828 16.1801 16.6186 14.9957 17.27 14.1666C17.6254 13.9298 18.1583 14.5812 18.3952 13.989V13.7521L17.6846 13.2783C17.6254 13.1007 18.5729 12.923 18.6321 13.1007C18.6321 13.3968 19.1058 13.989 19.6388 13.989C19.4612 13.456 19.8757 12.6269 19.698 12.39L19.2243 11.7978L19.1651 11.6202L19.2243 11.2057C19.2243 11.2057 19.2243 10.9096 19.1651 10.7911C18.9282 10.5542 18.5729 11.1464 18.336 11.1464C18.336 11.1464 18.4544 10.4358 17.8622 10.3174C17.5661 10.2581 17.27 10.3174 17.2108 10.6727C17.0332 11.3833 16.7963 12.1532 16.1449 12.5677C16.3817 11.7386 15.4934 11.4425 15.2566 10.7911V10.6727L15.9672 9.78438L16.1449 9.72516L16.441 9.90282L16.6186 10.0213L17.1516 10.0805L17.3293 9.96204C16.6778 9.31062 17.8622 9.01453 18.0991 8.54077L18.6321 9.07375C18.9282 9.42906 17.7438 9.5475 17.5661 9.90282C17.5661 9.90282 18.5137 11.0872 19.4612 9.96204L19.8757 9.60672C19.8757 9.2514 19.5204 8.89609 19.2835 8.54077C18.9874 8.06701 19.1651 7.47482 18.8097 7.00106C17.9807 6.58652 17.6846 6.8234 17.6846 6.8234V6.88262C17.6846 7.06028 17.5661 7.59326 17.7438 7.77091C17.7438 7.83013 17.7438 7.88935 17.6846 7.94857C17.3293 8.42233 17.2108 8.42233 17.1516 8.48155C16.3225 7.94857 17.5069 7.4156 17.3885 6.8234C16.5594 6.40886 16.3225 6.94184 16.3225 6.94184C16.2041 7.1195 16.3817 8.00779 16.2041 8.12623C15.4342 8.48155 15.2566 8.00779 15.1974 7.88935C15.4342 7.71169 15.9672 7.71169 15.9672 7.29716C15.9672 6.94184 16.0264 6.5273 15.6711 6.34964C15.1974 6.46808 14.6644 4.98759 13.8353 5.46135C13.7761 5.75745 13.48 6.05354 13.5984 6.34964L13.7761 6.40886L14.4867 6.2312C14.842 6.46808 14.3091 6.70496 14.1314 6.88262C13.7169 7.29716 14.4867 7.53403 14.6644 7.83013C14.4275 7.94857 14.0722 7.94857 13.7761 7.94857C14.2498 7.1195 13.3615 6.8234 12.8878 6.29042C12.8878 6.29042 12.8286 6.2312 12.7101 6.29042C12.4733 6.5273 11.8218 6.64574 11.6442 6.40886L11.2889 5.93511H11.052C10.4598 6.05354 10.4598 5.63901 9.92681 5.75745C9.68993 5.93511 9.63071 5.81667 9.27539 6.05354C8.97929 6.2312 8.74241 5.93511 8.74241 5.93511C8.74241 5.93511 8.15022 6.29042 7.67646 6.76418C7.14349 7.23794 6.96583 7.4156 6.55129 7.83013C6.31441 8.06701 6.96583 8.71843 6.96583 8.95531C6.90661 9.19218 6.07753 9.19218 5.78143 9.48828V9.5475C6.55129 9.36984 6.31441 9.90282 8.03178 8.83687C8.32788 8.71843 8.97929 8.54077 9.15695 8.95531C9.33461 9.2514 9.45305 9.5475 9.57149 9.90282C9.98603 10.5542 9.15695 11.0872 9.74915 11.7978C9.98603 12.1532 9.86759 13.1007 9.51227 13.3968C9.21617 13.989 9.57149 14.6996 9.74915 14.7588C10.2229 15.4695 10.0452 16.417 10.5782 17.0684C10.6374 17.1276 10.6967 17.3645 10.8743 17.246C10.8743 16.8315 10.5782 16.5354 10.6967 16.1209C10.9335 16.6539 11.585 17.0684 11.4073 17.779C11.4073 17.779 11.1704 18.0159 11.585 18.1343C11.9403 18.4304 12.1179 18.9042 13.1247 18.845C13.1247 18.845 13.3615 18.845 13.4208 19.0226C13.48 19.1411 14.1314 19.9702 14.9605 20.0294C14.9605 20.0294 15.0789 20.0886 15.1381 20.5031C15.1381 20.9177 14.842 21.3322 14.4867 21.5691C14.4867 21.5691 14.2498 21.806 15.3158 23.2865C15.6119 23.4049 16.0264 23.4049 16.2633 23.701C16.5002 23.9379 15.8488 24.4708 15.7895 24.9446C15.7895 25.1223 16.0856 25.3591 16.0856 25.5368C16.0856 25.7145 16.0264 25.8329 15.9672 26.0698C15.8488 26.662 15.908 27.491 15.8488 27.6687C15.8488 27.7871 15.6711 28.024 15.7895 28.024C16.3225 28.1425 15.8488 28.4978 15.8488 28.7347C15.908 29.3268 16.2041 29.8006 16.6778 30.2151L16.9147 29.919C17.0332 29.8006 16.8555 29.6822 16.6778 29.5637C16.6778 29.2676 17.0924 29.0308 16.7963 28.7347C17.0924 28.1425 17.0924 27.0765 18.0399 27.1357C18.0399 26.8396 17.7438 26.662 17.7438 26.3659C17.7438 26.3659 18.2176 26.8988 18.9874 25.9513C19.1058 25.8329 19.0466 25.2407 19.0466 25.2407C19.1058 24.8262 20.2902 24.4116 20.2902 24.4116C20.7048 24.1747 21.4154 22.3389 21.0009 21.9244L20.8232 21.6283Z" fill="currentColor"/><path id="Vector_12" d="M16.9147 5.87615C17.0332 6.2908 18.3956 6.40927 18.8695 6.52774L19.0472 6.35003C18.5141 5.69844 17.9217 5.40226 17.0332 5.16531H16.974C16.8555 5.28379 16.7963 5.46149 16.9147 5.87615Z" fill="currentColor"/><path id="Vector_13" d="M15.1974 5.57996L15.2566 5.69843C15.2566 5.75767 15.3159 5.8169 15.3751 5.8169C15.6121 5.99461 16.0267 5.69843 16.3821 5.75766C16.6783 5.57996 16.6191 4.9876 16.5006 4.92836C15.9082 4.86913 15.849 4.75065 14.9605 5.10607C14.9605 5.10607 14.9012 5.34301 15.1974 5.57996Z" fill="currentColor"/><path id="Vector_14" d="M23.7842 5.87579C23.4881 5.22437 23.1327 5.99423 22.8366 5.75735L22.4221 4.15842L21.3562 4.45452C20.8824 4.86906 20.1718 4.33608 20.1718 4.33608C20.1125 4.33608 19.8164 3.38857 19.8164 3.21091C19.2835 3.50701 18.5728 4.3953 18.3952 4.80984C18.0991 4.45452 17.9214 3.92154 17.3292 4.21764V4.27686C17.6845 4.57296 17.803 5.46125 18.336 5.10593C18.5136 5.16515 18.6913 5.34281 18.8097 5.46125C18.6913 5.52047 18.5136 5.52047 18.4544 5.63891L19.2835 6.46799C19.9349 6.23111 19.7572 5.63891 19.9941 5.28359C20.4086 5.22437 20.764 5.10593 21.1785 5.16515C21.3562 5.22437 21.5338 5.46125 21.4746 5.57969L20.7047 5.52047C20.5271 5.69813 20.6455 5.99423 20.5863 6.17189C20.764 6.34955 20.4086 6.70486 20.764 6.70486C21.7707 6.8233 21.4154 7.94847 21.3562 8.12613C21.1193 8.59989 20.9416 9.31053 20.8824 9.90272C20.8824 9.90272 20.9416 10.9095 21.0008 11.324C21.0008 11.324 21.4746 11.5017 21.9484 10.9687L22.126 10.7318C22.3037 10.5541 22.4813 10.3173 22.659 9.96194C22.8366 9.72506 23.0143 9.66584 23.1327 9.66584C24.1395 9.96194 24.1395 9.31053 24.6132 9.13287C24.7317 9.13287 24.7317 8.65911 24.6725 8.48145C24.6132 8.36301 24.7909 8.24457 24.9093 8.18535C25.5015 7.83004 25.6792 7.65238 25.3831 7.00096C24.9686 6.64564 24.0803 6.58642 23.7842 5.87579Z" fill="currentColor"/><path id="Vector_15" d="M43.4451 22.6944C43.4451 23.109 43.2674 23.5829 43.3859 23.9383C43.5044 23.9976 43.7413 24.1753 43.919 24.116L44.5114 22.3982L44.2152 22.102C43.8598 22.0428 43.919 22.7536 43.4451 22.6944Z" fill="currentColor"/><path id="Vector_16" d="M46.7022 19.3181H46.8205C47.1755 19.2589 46.998 18.8447 47.1164 18.608C47.0572 18.4897 46.9389 18.5489 46.8205 18.4897C46.7022 18.7264 46.643 19.0222 46.7022 19.3181Z" fill="currentColor"/><path id="Vector_17" d="M35.5689 12.6865C35.6282 12.6865 35.8651 12.5681 35.9244 12.5681C36.0428 12.5088 36.0428 12.5681 36.0428 12.5681L35.8651 13.042L36.3983 12.805C36.3983 12.805 36.576 12.7458 36.6944 12.6865C36.7537 12.6273 36.7537 12.5681 36.8129 12.4496C36.5167 12.1534 36.339 11.9165 36.2205 11.5611C36.1021 11.2056 35.8651 11.2649 35.7467 11.6203C35.6874 11.798 35.9244 11.9165 35.9836 12.1534C35.9836 12.0942 35.9244 12.0349 35.8651 12.0349C35.8059 12.0349 35.6874 11.9757 35.6282 12.0942C35.5097 12.2719 35.3912 12.5088 35.3912 12.6273C35.4505 12.6273 35.4505 12.6865 35.5689 12.6865Z" fill="currentColor"/><path id="Vector_18" d="M35.0955 9.72518L35.0363 9.54747C34.5624 9.48823 34.1477 9.72518 33.6738 9.72518C33.7331 9.90289 33.9108 10.0806 34.0292 10.2583C34.4439 10.1991 34.8585 10.1991 35.0955 10.0214C35.0955 9.96212 34.977 9.84365 35.0955 9.72518Z" fill="currentColor"/><path id="Vector_19" d="M42.6755 7.77154C42.6755 7.65307 42.557 7.59383 42.4978 7.47536C42.1423 6.76453 42.9124 6.34987 43.2086 5.81675C43.1494 5.69828 43.0309 5.5798 42.9124 5.52057C42.6755 5.75751 42.2608 5.93522 42.2016 6.29064C42.2608 6.76453 42.0239 7.23841 41.9054 7.7123C42.1423 7.83077 42.3793 7.77154 42.6755 7.77154Z" fill="currentColor"/><path id="Vector_20" d="M49.8408 18.7858C49.8408 18.7858 49.9592 18.9635 50.0777 19.2596C50.2553 19.6149 50.3738 19.4373 50.3738 19.0819C50.3146 18.6674 49.9 18.6674 50.0185 18.2529L50.4922 18.549C50.6699 18.3713 50.7883 18.1344 50.966 17.9568C51.0252 17.5422 50.7291 17.1869 50.6699 16.8316C50.9068 16.7132 51.2029 16.6539 51.499 16.5947C51.795 16.5355 52.0319 16.4763 52.2688 16.3578C52.2688 16.3578 52.5649 15.9433 52.6241 15.7656C52.6833 15.588 52.7426 14.9958 52.7426 14.9958C52.7426 14.9366 52.6833 14.8181 52.6833 14.7589C52.4465 14.2259 51.9727 13.8706 52.1504 13.3969C52.5649 13.2784 52.5057 13.3969 52.8018 13.5745C52.861 13.693 53.2163 13.9298 53.0979 14.4036C53.1571 14.6405 53.2163 14.522 53.2755 14.5812C53.2755 14.5812 53.5716 14.2259 53.5716 13.9891C53.5716 13.7522 53.0979 13.16 53.0979 13.16C53.3348 12.9823 53.4532 12.8047 53.5124 12.5678C53.5716 12.2125 53.5124 11.7979 53.7493 11.5018C53.927 11.7387 53.9862 12.4493 54.4599 12.1532C54.1046 11.4426 53.9862 10.6135 53.6901 10.3174C53.5124 10.1398 53.2755 10.0806 52.9794 10.0806C52.9794 9.72524 53.0387 9.42914 53.1571 9.13305C53.6309 8.89617 52.5057 8.54085 52.9202 8.18553L52.861 8.12631H52.1504C51.2029 7.00114 52.4465 6.23129 51.0252 5.52065C50.7883 5.75753 50.6699 5.34299 50.3146 5.46143C49.9 5.52065 49.6631 4.92846 49.6039 4.63236L48.7749 4.33626C48.6564 4.33626 47.7681 4.09938 47.3536 4.04016C46.7614 3.98094 46.5245 5.10611 45.9323 5.04689C44.9848 5.10611 45.5178 6.23129 44.8664 6.64582L44.0373 6.70504L43.7412 7.83022L42.9713 7.65256L42.9121 8.18553C42.4384 8.0671 42.2607 8.54085 41.9054 8.71851C41.7277 8.60007 41.7869 8.36319 41.5501 8.36319C41.4908 8.89617 41.254 9.3107 40.721 9.48836C40.6618 9.36992 40.4841 9.42915 40.5433 9.25149L40.8986 8.89617C40.5433 8.30397 39.9511 8.06709 39.2997 8.00787C38.4706 8.71851 37.9377 9.42915 37.4047 10.2582C37.3455 10.6135 37.227 10.9689 37.2863 11.3242H37.8784C38.0561 11.4426 38.0561 11.6795 38.293 11.7387C38.8852 11.9164 38.5891 11.265 38.7667 11.0281C38.5891 10.7912 38.6483 10.5543 38.7667 10.3174C38.8852 10.0213 39.1221 9.72524 39.2997 9.48836C39.2997 9.78446 39.1813 10.0213 39.1221 10.3174C39.1221 10.4359 39.0628 10.5543 39.0628 10.6135C39.3589 10.6728 39.655 10.732 39.9511 10.732C40.0103 10.732 40.0696 10.7912 40.0696 10.8504C39.4182 10.7912 39.2997 11.5611 39.0036 11.9164L38.0561 12.0348C37.8784 11.9756 37.8192 11.6203 37.5823 11.6203L37.5231 12.2125C37.3455 12.2717 37.227 12.3901 37.1086 12.5678C36.9309 12.7454 36.6941 12.9823 36.398 12.9823C36.2795 13.0415 36.1019 13.2192 35.9834 13.3376C36.0426 13.5745 36.398 13.5745 36.5164 13.7522C36.5756 14.3444 35.9242 14.1075 35.5689 14.2259V14.2852V14.8181V14.8773V15.3511L36.6941 15.4103C36.7533 15.2327 36.7533 15.1142 36.8125 14.9366C36.8717 14.6997 36.9902 14.4628 37.1086 14.2852L37.8784 14.1667C38.1153 14.4036 38.5891 14.5813 38.6483 14.9366C38.6483 14.9958 38.6483 15.1142 38.6483 15.1734C38.826 15.1734 38.9444 15.055 39.0628 14.9958C39.1221 14.9366 39.1813 14.9366 39.2405 14.8773C39.1221 14.4036 38.5299 14.2852 38.5299 13.8114C38.9444 14.1667 39.3589 14.4628 39.5958 14.9366C39.5958 14.9958 39.655 15.055 39.655 15.1142C39.7735 15.1142 39.9511 15.055 40.0104 15.055L39.9511 14.9366L39.8327 14.522C39.9511 14.4036 40.0696 14.4628 40.188 14.4036L40.3657 14.9366L40.4841 15.2327L41.3132 15.2919C41.6685 15.2327 41.6093 15.7064 41.6093 15.8841C40.8986 16.4763 40.2472 15.4103 39.4182 15.8249C39.4182 15.9433 39.4774 16.121 39.3589 16.1802C39.0036 16.0025 38.6483 15.7064 38.2338 15.7656L38.1153 15.2327C37.3455 15.2919 36.5756 15.6472 35.8058 15.588C35.0359 16.121 34.6806 16.1802 34.3845 17.0093L34.2661 18.4897L35.0359 19.7926L36.398 20.3256L37.1678 20.0295C37.4639 20.3848 38.6483 20.0295 38.1745 20.8585C37.8784 21.0954 39.1221 22.6943 38.826 23.7011C39.2997 24.2933 39.4182 25.0039 39.7143 25.6553L41.3132 25.3592C41.4908 24.9447 41.7277 24.4709 42.2015 24.0564C42.0238 23.405 42.616 23.1089 42.9713 22.6351C43.2082 22.1021 42.6752 21.7468 42.8529 21.2138C43.2674 20.3848 44.8071 19.3188 44.3334 18.8451H44.0965C43.8004 18.7266 43.3267 18.7858 43.0306 18.7858C42.616 17.9568 41.4316 17.1869 41.6093 16.3578C42.1423 17.0685 42.6752 17.7199 43.0898 18.4305C43.149 18.4897 43.149 18.549 43.2082 18.6082C43.2674 18.6082 44.4518 18.1936 45.2217 17.2461L44.7479 16.7724L43.9781 16.95C43.7412 16.7132 43.5635 16.4171 43.5043 16.121C44.0373 16.3578 44.5703 16.7132 45.1625 16.7132C45.2809 16.8908 45.3993 17.3646 45.4586 17.5422C45.5178 17.6607 45.6362 17.5422 45.6954 17.7199C45.7547 17.8383 45.9323 18.4305 45.9915 18.549C46.11 18.7858 46.2876 18.7266 46.4061 18.6674C46.5837 18.2529 46.7614 17.7791 46.9983 17.4238C47.1167 17.2461 47.1759 17.1869 47.472 17.0685C47.6497 17.1277 47.6497 16.7132 47.7681 16.5947C47.8273 16.5355 48.005 16.5355 48.0642 16.6539C48.3603 16.95 48.3011 17.0093 48.4195 17.4238C48.538 17.483 48.6564 17.7199 48.8933 17.6015L49.3671 18.3713C49.6631 18.4897 49.7224 18.549 49.8408 18.7858Z" fill="currentColor"/><path id="Vector_21" d="M53.7493 23.6417C53.8085 23.5233 53.7493 23.4048 53.7493 23.2864C53.7493 23.168 53.7493 23.0495 53.7493 22.9311C53.7493 22.8126 53.6901 22.8126 53.6901 22.6942C53.6901 22.5758 53.6901 22.4573 53.6901 22.3389C53.6309 22.3389 53.6309 22.3389 53.5717 22.3389C53.5717 22.1612 53.5717 21.8651 53.5125 21.6875C53.2756 21.6875 53.5124 21.0361 53.4532 20.8584C53.394 20.8584 53.3348 20.9768 53.2756 21.1545C53.2163 21.2729 53.1571 21.4506 53.0979 21.569C53.0387 21.7467 52.9203 21.9243 52.9203 21.9836C52.861 21.9836 52.6242 21.7467 52.6834 21.6283C52.6834 21.5098 52.861 21.3322 52.7426 21.2137C52.5649 21.0361 52.0912 21.3322 52.032 21.5098C52.0912 21.569 52.0912 21.6875 52.1504 21.7467C52.032 21.7467 51.7951 21.7467 51.7359 21.6875C51.5582 21.8059 51.5582 21.8651 51.3213 22.0428C51.2029 22.102 51.1437 22.2204 51.0252 22.2797C50.9068 22.3389 50.7884 22.3389 50.7291 22.3981C50.433 22.5758 50.4922 22.8126 50.4922 23.0495C50.4922 23.2864 50.3738 23.5825 50.3146 23.7009C50.2554 23.8194 50.1962 23.9378 50.3738 24.0563C50.5515 24.1747 51.0252 23.8194 51.2621 23.7009C51.3805 23.6417 51.5582 23.5825 51.6766 23.5825C51.8543 23.5825 51.9135 23.5825 51.9727 23.7009C52.0912 23.8194 52.1504 24.1155 52.1504 24.1155C52.2096 24.0563 52.2688 24.0563 52.3281 24.0563C52.3281 24.2931 52.2688 24.5892 52.5057 24.7077C52.6834 24.8261 52.9795 24.7669 53.2164 24.7669C53.2164 24.6485 53.2163 24.53 53.2756 24.4116C53.3348 24.3524 53.394 24.2339 53.4532 24.1747C53.4532 23.997 53.6901 23.8786 53.7493 23.6417Z" fill="currentColor"/><path id="Vector_22" d="M53.8086 25.0631C53.6309 25.1816 53.3347 25.1223 53.2755 25.3593C53.4532 25.5962 53.5125 25.2408 53.7494 25.2408L53.9864 25.1816C53.9864 25.1223 54.2825 24.8261 54.2233 24.7077C54.1048 24.7669 53.8679 24.8261 53.8086 25.0631Z" fill="currentColor"/><path id="Vector_23" d="M54.578 24.4113C54.578 24.3521 54.578 24.0563 54.4597 24.1154C54.3413 24.1746 54.5189 24.4705 54.2822 24.4705C54.223 24.4705 53.9863 24.5296 54.223 24.5888C54.4597 24.648 54.4005 24.8847 54.5189 24.7663C54.6964 24.5888 54.8739 24.648 54.8147 24.4705C54.7555 24.4705 54.6372 24.4113 54.578 24.4113Z" fill="currentColor"/><path id="Vector_24" d="M50.4333 20.4443C50.4925 20.5036 50.5517 20.5036 50.6702 20.5036C50.7294 20.5036 51.4995 20.6221 51.4995 20.5036C50.9664 20.5036 50.5517 20.2666 50.4925 20.2074C50.4925 20.0297 50.4333 19.9705 50.374 19.852C50.374 19.852 50.1371 19.5558 50.0778 19.4966C49.9001 19.3189 49.8409 19.2596 49.7817 19.1412C49.7224 19.0819 49.4855 18.7857 49.4855 19.0227C49.4855 19.2004 49.6632 19.3189 49.8409 19.615C49.9001 19.7927 50.374 20.3851 50.4333 20.4443Z" fill="currentColor"/><path id="Vector_25" d="M51.5583 19.0818C51.4991 19.0226 51.3806 19.0818 51.3214 19.141C51.0252 19.378 50.966 19.4964 50.966 19.4964C50.7883 19.6149 50.9067 19.7334 50.9067 19.8519C50.9067 20.148 50.9067 20.2665 51.3806 20.2073C51.3806 19.9111 51.5583 19.6149 51.6768 19.4964C51.4399 19.3187 51.6176 19.2003 51.5583 19.0818Z" fill="currentColor"/><path id="Vector_26" d="M52.6241 20.1479C52.6241 20.2071 52.8611 20.2071 52.8611 20.2664C52.9796 20.5625 52.9203 20.918 53.1573 20.8587C53.2165 20.7995 53.2757 20.7403 53.2165 20.7403C53.5127 20.681 53.6904 21.0957 53.9273 21.0364C53.9273 20.918 53.8089 20.7995 53.7496 20.681C53.6904 20.5625 53.6904 20.5033 53.5719 20.3256C53.5127 20.2664 53.2165 20.2071 53.098 20.1479C52.9796 20.0887 53.098 19.9702 52.9796 19.9109L52.7426 19.9702C52.7426 20.0887 52.5649 20.0887 52.6241 20.1479Z" fill="currentColor"/><path id="Vector_27" d="M51.9723 19.733C51.9723 19.6739 51.9131 19.6739 51.8539 19.6147C51.7356 19.6147 51.7356 19.6739 51.6764 19.733C51.6764 19.733 51.6764 19.7922 51.6173 19.8514C51.5581 19.9697 51.4397 19.9697 51.4989 20.1472C51.4989 20.2656 51.6173 20.3247 51.6764 20.3839C51.6764 20.3839 51.7356 20.3247 51.7356 20.1472C51.6764 20.0289 51.6764 19.9105 51.6764 19.8514C51.8539 19.733 51.9131 19.7922 51.9723 19.733Z" fill="currentColor"/><path id="Vector_28" d="M52.3282 18.1345C52.3874 18.0753 52.2689 17.8976 52.2689 17.8976C52.2689 17.8976 52.032 17.246 51.9728 17.1868C51.9135 17.1275 51.795 17.1868 51.795 17.246C51.795 17.3052 51.9728 17.7199 51.9728 17.7199C51.9728 17.7199 51.9728 18.0161 52.032 18.0753C52.0912 18.1345 52.2689 18.3123 52.2689 18.3123C52.2689 18.3123 52.2689 18.1938 52.3282 18.1345Z" fill="currentColor"/><path id="Vector_29" d="M52.2686 19.0813C52.2686 19.0813 52.387 18.963 52.387 18.9038C52.4461 18.8446 52.5053 18.6079 52.5053 18.6079C52.5053 18.6079 52.4461 18.3121 52.2686 18.4304C52.0911 18.5488 51.9728 18.7263 52.0319 18.7854C52.1503 18.8446 52.2686 19.0813 52.2686 19.0813Z" fill="currentColor"/><path id="Vector_30" d="M52.3279 24.8853C52.2096 24.9445 52.1504 25.0629 52.2096 25.122C52.2096 25.1812 52.3279 25.2995 52.3279 25.2995C52.3279 25.2995 52.3871 25.2404 52.4462 25.1812C52.4462 25.122 52.5054 25.0037 52.5054 25.0037C52.5054 25.0037 52.4462 24.8262 52.3279 24.8853Z" fill="currentColor"/><path id="Vector_31" d="M54.8748 12.9231C54.8156 12.8046 54.6971 12.7454 54.6378 12.6269C54.5786 12.6862 54.5194 12.8046 54.5194 12.9231C54.5194 13.0416 54.6378 13.0416 54.6378 13.16C54.6971 13.3378 54.2824 13.6339 54.1047 13.7524C53.8085 13.9301 53.7493 13.9301 53.7493 14.2855C53.7493 14.404 53.6308 14.9964 53.9862 14.7594C54.2232 14.5817 54.0455 14.2855 54.1047 14.1078L54.2824 13.9893C54.4601 13.9301 54.5194 14.1078 54.5194 14.2263C54.5786 14.2263 54.6378 14.2263 54.6971 14.1671C54.7563 14.1078 54.934 13.7524 54.9933 13.6932C55.0525 13.397 54.9933 13.1008 54.8748 12.9231Z" fill="currentColor"/></g><g id="Group_3" class="transition-colors" color="rgb(0, 100, 166)"><path id="Vector_32" d="M125.405 4.33615L118.18 24.1747L112.732 4.33615H107.106L107.994 7.47479L101.954 24.1747L96.4466 4.33615H90.8208L98.5785 30.8073H102.25L109.297 11.9163L114.864 30.8073H118.536L128.662 4.33615H125.405Z" fill="currentColor"/><path id="Vector_33" d="M139.322 4.27687C137.427 4.80985 135.768 5.69815 134.288 6.94176C132.867 8.12615 131.682 9.66586 130.853 11.6201C130.024 13.5151 129.55 15.8839 129.55 18.6672C129.55 20.5623 129.906 22.2796 130.557 23.8786C131.209 25.4775 132.156 26.8988 133.4 28.0832C134.643 29.2676 136.183 30.1558 138.019 30.8073C139.855 31.4587 141.868 31.7548 144.237 31.7548C147.494 31.7548 150.159 31.2218 152.291 30.1558L153.12 27.0172L152.942 26.8988C152.528 27.3133 152.054 27.6686 151.521 28.0239C150.929 28.4385 150.336 28.7346 149.626 28.9715C148.974 29.2676 148.264 29.4452 147.612 29.5636C146.902 29.7413 146.25 29.8005 145.599 29.8005C144.415 29.8005 143.23 29.5637 142.046 29.1491C140.861 28.7346 139.795 28.0239 138.907 27.0764C137.96 26.1289 137.249 24.8853 136.657 23.4048C136.065 21.9243 135.768 20.0885 135.768 18.0158C135.768 15.8247 136.065 13.9889 136.598 12.39C137.131 10.791 137.9 9.4882 138.789 8.48147C139.677 7.47473 140.743 6.70488 141.868 6.1719C142.993 5.69815 144.118 5.40205 145.244 5.40205C148.974 5.40205 150.633 7.35629 151.462 9.13288H152.113L153.416 5.22439C153.001 4.98751 152.528 4.75063 151.935 4.57297C151.284 4.33609 150.573 4.09922 149.863 3.98078C149.152 3.80312 148.382 3.68468 147.612 3.56624C146.843 3.4478 146.132 3.38858 145.421 3.38858C143.23 3.4478 141.217 3.68468 139.322 4.27687Z" fill="currentColor"/><path id="Vector_34" d="M86.8531 18.9634V4.27695H83.9513V20.3255C83.9513 23.168 82.7669 29.5045 76.4896 29.5045C71.2783 29.5045 70.5677 24.4708 70.5677 17.9567V4.27695H65.1787V21.5099C65.1787 26.4251 68.495 31.5772 75.3052 31.5772C81.4049 31.6364 86.8531 29.6229 86.8531 18.9634Z" fill="currentColor"/><path id="Vector_35" d="M42.6752 0.25C33.3777 0.25 25.9161 7.77089 25.9161 17.0091C25.9161 19.7925 26.6267 22.3981 27.8111 24.7669C28.2849 24.1155 28.6994 23.4641 28.9955 22.6942C28.2849 20.9176 27.8703 19.0226 27.8703 16.9499C27.8703 8.77762 34.5029 2.08581 42.7344 2.08581C50.9068 2.08581 57.5986 8.7184 57.5986 16.9499C57.5986 25.1222 50.966 31.8141 42.7344 31.8141C38.5891 31.8141 34.9175 30.1559 32.1934 27.4318C31.838 27.9648 31.4235 28.4978 31.009 29.0307C34.0292 31.9917 38.1745 33.8275 42.7344 33.8275C52.0319 33.8275 59.4936 26.3066 59.4936 17.0684C59.4936 7.77089 51.9727 0.25 42.6752 0.25Z" fill="currentColor"/><path id="Vector_36" d="M31.8973 9.3106C31.4235 9.96202 31.0682 10.6134 30.7129 11.3241C31.4235 13.1007 31.8381 14.9957 31.8381 17.0091C31.8381 25.1815 25.2055 31.8733 16.9739 31.8733C8.80163 31.8733 2.10981 25.2407 2.10981 17.0091C2.10981 8.83684 8.74241 2.14503 16.9739 2.14503C21.1193 2.14503 24.8501 3.8624 27.515 6.5865C27.8703 6.05352 28.2849 5.52054 28.6994 5.04679C25.6792 2.08581 21.5338 0.25 16.9739 0.25C7.67645 0.25 0.214783 7.77089 0.214783 17.0091C0.214783 26.3066 7.73567 33.7683 16.9739 33.7683C26.2714 33.7683 33.7331 26.2474 33.7331 17.0091C33.7923 14.285 33.1409 11.6202 31.8973 9.3106Z" fill="currentColor"/></g></g></svg>