<svg width="4544" height="896" viewBox="0 0 4544 896" fill="none" xmlns="http://www.w3.org/2000/svg">
<path fill-rule="evenodd" clip-rule="evenodd" d="M2470.07 394.658C2463.09 253.42 2451.77 24.2182 2599.64 2.26286C2786.5 -25.621 2783.73 211.033 2782.28 335.443C2782.23 339.376 2782.18 343.197 2782.15 346.894C2781.98 363.856 2782.79 386.727 2783.73 413.473C2789.23 568.532 2799.33 853.811 2649.41 872.669C2460.71 896.581 2467.22 664.988 2471.39 516.637C2471.99 495.379 2472.54 475.831 2472.46 458.988C2472.37 441.268 2471.29 419.302 2470.07 394.658ZM2801.4 433.702C2793.13 282.914 2778.91 23.3538 2936.96 8.59618C3112.38 -7.71462 3119.44 203.872 3119.44 324.476C3119.44 330.968 3119.44 337.454 3119.45 343.937C3119.5 408.642 3119.55 472.909 3114.71 537.453C3113.97 547.397 3113.29 558.202 3112.57 569.654C3104.94 691.194 3092.74 885.56 2948.02 895.592C2788.2 906.675 2797.19 689.308 2802.62 558.225C2803.48 537.528 2804.24 518.981 2804.24 503.825C2804.24 485.632 2802.92 461.518 2801.4 433.702ZM1477.28 373.108C1479.45 426.71 1481.79 484.749 1526.88 520.639C1527.47 473.723 1519.03 423.864 1510.54 373.732C1497.51 296.824 1484.37 219.276 1503.59 150.731C1529.81 57.2447 1628.47 8.98809 1714.88 56.5157C1784.05 94.5322 1806.77 183.438 1825.08 255.101L1825.62 257.22C1874.23 447.386 1864.81 676.765 1714.88 818.283C1589.94 936.175 1452.66 881.473 1327.81 797.118C1320.48 800.585 1313.07 804.145 1305.57 807.742C1213.74 851.832 1110.27 901.508 1013.17 854.713C809.828 756.717 768.575 425.773 840.167 234.801C874.915 142.099 942.997 23.2802 1056.85 33.5928C1214.91 48.2269 1167.24 208.53 1133.21 322.986C1126.92 344.132 1121.1 363.714 1117.12 380.522C1097.91 461.79 1140.74 518.678 1140.74 518.678C1140.74 518.678 1186.37 478.604 1186.37 374.918C1188.68 358.551 1190.12 340.095 1191.63 320.724C1198.37 234.221 1206.54 129.478 1300.16 111.161C1334.76 104.36 1371.73 104.392 1405.22 116.934C1476.73 143.603 1476.55 246.515 1476.42 322.66C1476.4 337.64 1476.37 351.584 1476.9 363.708C1477.03 366.823 1477.16 369.958 1477.28 373.108ZM3191.39 268.429C3252.54 119.371 3344.46 36.4849 3506.52 13.0241C3624.57 -4.0793 3785.69 46.8418 3864.93 134.141C3937.23 213.783 3928.19 400.923 3838.28 466.61C3765.61 519.7 3710.91 476.573 3655.94 433.231C3612.91 399.298 3569.7 365.234 3517.58 377.104C3391.03 405.999 3420.92 645.672 3572.87 602.299C3594.31 596.18 3618.5 583.51 3643.76 570.277C3714.29 533.331 3793.19 492.006 3843.78 576.686C3912.28 691.38 3768.83 832.476 3672.41 862.3C3532.23 905.653 3343.3 886.658 3236.05 777.95C3101.91 641.981 3125.06 430.124 3191.39 268.429ZM2312.72 675.497C2297.56 683.204 2282.33 690.946 2267.86 699.989C2276 701.523 2285.05 702.184 2294.34 702.862C2316.26 704.463 2339.5 706.159 2355.08 719.661C2415.58 772.177 2320.06 851.147 2273.39 865.663C1941.61 968.871 1714.89 571.081 1996.91 321.449C2121.78 244.442 2304.77 237.391 2403.18 363.764C2449.19 422.894 2451.88 528.654 2415.13 593.5C2391.31 635.549 2352.25 655.404 2312.72 675.497ZM3915.72 543.058C3915.72 397.336 4065.22 294.099 4186.67 276.444C4327.85 255.875 4484.6 356.142 4529.02 492.616C4583.8 660.868 4484.03 858.468 4300.58 885.539C4080.23 918.067 3915.72 800.873 3915.72 543.058ZM2162.11 451.681C2089.28 474.394 2101.32 548.434 2178.7 534.372C2256.07 520.31 2220.15 433.586 2162.11 451.681ZM4223.76 563.784C4152.53 591.964 4192.32 705.691 4267.29 671.629C4323.96 645.914 4283.75 540.086 4223.76 563.784Z" fill="#79AFD7"/>
<path d="M279.155 81.4591C276.31 73.243 267.613 71.0679 260.814 76.6425C251.922 83.934 248.251 94.9429 245.655 105.683C243.734 113.635 244.424 120.373 253.676 121.833C236.42 158.374 235.644 212.766 268.963 240.72C272.882 244.008 277.708 245.826 282.213 248.169C304.127 259.572 333.458 261.955 357.631 257.47C387.876 251.858 405.816 230.458 425.915 209.646C426.933 220.843 435.746 224.54 445.264 218.66C456.162 211.927 473.065 185.992 457.494 176.077C454.282 174.031 449.998 173.775 446.298 173.309C446.57 164.879 452.273 156.566 454.085 148.076C457.241 133.284 455.557 116.939 450.786 102.655C446.966 91.2215 441.158 79.6796 433.441 70.3563C426.956 62.5218 419.105 55.5048 410.628 49.8374C383.909 31.978 347.638 33.5819 319.922 48.4626C304.089 56.9623 291.771 68.9634 279.155 81.4591Z" fill="#5F869E"/>
<path d="M36.5935 554.337C129.847 527.589 653.526 483.158 756.635 449.87C822.881 213.683 497.383 378.206 394.831 378.206C370.37 317.646 299.273 262.893 239.408 242.958C152.698 214.086 66.9627 229.731 24.1118 314.618C-13.5526 389.229 -5.34725 483.173 36.5935 554.337Z" fill="#5F869E"/>
<path d="M54.4289 585.122C60.9118 597.698 83.8512 618.347 93.6271 628.524C109.89 645.452 126.094 662.461 143.606 678.153C172.544 704.083 201.779 729.624 231.254 754.976C256.751 776.906 282.229 799.233 309.73 818.705C325.401 829.801 341.834 842.505 355.593 853.779C364.586 861.149 373.938 868.748 382.091 876.822C381.594 865.528 379.912 854.738 378.306 843.514C375.12 821.266 372.932 798.323 371.939 775.888C369.848 728.575 365.224 690.438 367.313 643.159C368.399 618.585 372.409 586.131 378.306 552.318C349.987 559.384 321.298 563.637 295.462 566.116C257.864 569.718 219.182 572.243 181.825 577.047C159.201 579.958 139.423 591.228 117.108 594.927C104.991 596.935 91.6621 597 79.3985 596.17C74.5167 595.84 63.6014 594.206 54.4289 585.122Z" fill="#5F869E"/>
<path d="M423.367 65.0714C413.048 92.3237 429.992 188.211 452.923 214.959C452.923 214.959 458.528 223.89 461.804 227.576C469.611 236.361 478.14 244.787 488.594 250.476C518.812 266.923 564.905 263.193 591.098 240.163C600.397 231.986 606.976 220.905 611.205 209.408C624.417 173.477 617.645 134.991 607.836 99.3891C615.564 97.8438 618.7 91.5324 619.761 84.2489C621.556 71.9117 616.708 57.3691 606.802 49.4447C598.025 42.4227 586.58 40.183 581.338 51.9499C577.213 42.2875 567.983 33.3467 560.227 26.3782C533.027 1.94294 492.118 -11.4521 460.057 12.8237C442.178 26.3614 431.127 44.578 423.367 65.0714Z" fill="#79AFD7"/>
<path d="M649.113 373.16C679.591 367.343 701.622 344.632 735.742 351.153C749.839 353.847 766.551 368.192 762.775 384.262C758.893 400.796 737.136 413.079 723.512 421.059C618.52 482.558 475.213 479.816 357.631 491.081C308.551 495.786 167.581 519.871 126.575 480.715C117.026 471.597 109.734 455.729 95.7051 452.425C89.2782 450.912 80.7448 453.736 79.5493 461.012C77.8636 471.279 81.7282 482.538 84.4943 492.262C39.4817 492.262 23.3443 508.916 36.5935 554.337C39.8586 565.53 46.4251 576.705 54.4289 585.122C150.108 685.741 345.996 494.732 351.516 718.355C352.941 775.944 374.957 818.28 382.091 876.822C382.091 876.822 397.888 890.953 401.965 896C411.137 881.869 417.762 870.262 428.973 856.636C493.314 786.213 575.231 735.223 645.036 670.826C711.52 609.492 756.746 529.874 766.49 439.776C772.788 381.445 760.321 311.524 711.282 272.897C648.944 223.797 560.085 257.092 498.276 291.261C478.011 302.466 399.926 351.153 394.781 378.205C397.027 396.619 446.929 389.217 457.509 388.3C495.997 384.962 541.992 381.346 577.771 364.967C601.97 353.892 682.656 314.839 649.113 373.16Z" fill="#79AFD7"/>
</svg>
